<?xml version="1.0" encoding="UTF-8" standalone="no"?>
<!-- Created with Inkscape (http://www.inkscape.org/) -->

<svg
   xmlns:dc="http://purl.org/dc/elements/1.1/"
   xmlns:cc="http://creativecommons.org/ns#"
   xmlns:rdf="http://www.w3.org/1999/02/22-rdf-syntax-ns#"
   xmlns:svg="http://www.w3.org/2000/svg"
   xmlns="http://www.w3.org/2000/svg"
   xmlns:sodipodi="http://sodipodi.sourceforge.net/DTD/sodipodi-0.dtd"
   xmlns:inkscape="http://www.inkscape.org/namespaces/inkscape"
   width="700"
   height="700"
   viewBox="0 0 185.20834 185.20834"
   version="1.1"
   id="svg870"
   inkscape:version="0.92.4 (5da689c313, 2019-01-14)"
   sodipodi:docname="river-plate-logo.svg"
   inkscape:export-filename="C:\Users\suitedoalex\sites\river-plate-logo-0.png"
   inkscape:export-xdpi="561.73712"
   inkscape:export-ydpi="561.73712">
  <defs
     id="defs864" />
  <sodipodi:namedview
     id="base"
     pagecolor="#ffffff"
     bordercolor="#666666"
     borderopacity="1.0"
     inkscape:pageopacity="0.0"
     inkscape:pageshadow="2"
     inkscape:zoom="0.35"
     inkscape:cx="-64.285714"
     inkscape:cy="560"
     inkscape:document-units="mm"
     inkscape:current-layer="layer1"
     showgrid="false"
     units="px"
     inkscape:window-width="1600"
     inkscape:window-height="837"
     inkscape:window-x="-8"
     inkscape:window-y="-8"
     inkscape:window-maximized="1" />
  <metadata
     id="metadata867">
    <rdf:RDF>
      <cc:Work
         rdf:about="">
        <dc:format>image/svg+xml</dc:format>
        <dc:type
           rdf:resource="http://purl.org/dc/dcmitype/StillImage" />
        <dc:title></dc:title>
      </cc:Work>
    </rdf:RDF>
  </metadata>
  <g
     inkscape:label="Layer 1"
     inkscape:groupmode="layer"
     id="layer1"
     transform="translate(0,-111.79161)">
    <path
       style="fill:#ffffff;fill-opacity:1;fill-rule:nonzero;stroke:none;stroke-width:0.25450778"
       d="M 90.893194,265.37675 C 88.013081,264.20959 80.50013,260.64052 72.944431,252.70007 60.579923,239.70626 53.451716,220.69869 52.333274,197.73036 51.435539,179.3203 46.726149,167.94599 44.743773,163.90966 l -1.450496,-2.95269 18.407079,-18.07304 2.873153,1.363 c 2.678297,1.27055 10.771844,4.22822 28.032642,4.25307 17.255829,-0.0248 25.349379,-2.98252 28.028669,-4.25406 l 2.87216,-1.36201 18.40807,18.07304 -1.45049,2.95269 c -1.98238,4.03732 -6.69177,15.41362 -7.5905,33.8207 -1.11744,22.96833 -8.24466,41.9759 -20.61016,54.96872 -7.55471,7.94044 -15.069648,11.51051 -17.949762,12.67767 l -1.709976,0.69393 z m 0,0"
       id="path2"
       inkscape:connector-curvature="0"
       inkscape:export-filename="C:\Users\suitedoalex\sites\river-plate-logo-4.png"
       inkscape:export-xdpi="99.796585"
       inkscape:export-ydpi="99.796585" />
    <path
       style="fill:#eb172b;fill-opacity:1;fill-rule:nonzero;stroke:none;stroke-width:0.25450778"
       d="m 92.604162,166.28871 c 13.583358,0 25.038198,9.08473 28.640078,21.5069 L 136.65689,161.23136 122.822,147.647 l -0.342,0.16205 c -3.52633,1.67319 -11.8545,4.44295 -28.307036,4.62389 l -8.549872,14.6859 c 2.239868,-0.53785 4.57617,-0.83013 6.98107,-0.83013"
       id="path4"
       inkscape:connector-curvature="0"
       inkscape:export-filename="C:\Users\suitedoalex\sites\river-plate-logo-4.png"
       inkscape:export-xdpi="99.796585"
       inkscape:export-ydpi="99.796585" />
    <path
       style="fill:#eb172b;fill-opacity:1;fill-rule:nonzero;stroke:none;stroke-width:0.25450778"
       d="m 92.604162,225.93599 c -13.609207,0 -25.08194,-9.11953 -28.659964,-21.57849 l -5.494784,9.43867 c 2.939764,14.68788 8.874965,26.9818 17.52823,36.07449 2.066885,2.17326 4.121835,3.98265 6.062458,5.49279 l 17.558055,-30.25958 c -2.244837,0.53884 -4.584124,0.83212 -6.993995,0.83212"
       id="path6"
       inkscape:connector-curvature="0"
       inkscape:export-filename="C:\Users\suitedoalex\sites\river-plate-logo-4.png"
       inkscape:export-xdpi="99.796585"
       inkscape:export-ydpi="99.796585" />
    <path
       style="fill:#211e1e;fill-opacity:1;fill-rule:nonzero;stroke:none;stroke-width:0.25450778"
       d="m 110.70404,204.22031 v -19.92716 c 2.2349,3.39807 3.54223,7.45528 3.54223,11.81969 0,6.58043 -3.54223,8.10747 -3.54223,8.10747 m 0,-27.47193 c -1.34312,-1.25464 -2.8145,-2.3711 -4.39423,-3.32948 v 45.38789 c 1.57973,-0.95838 3.05111,-2.07484 4.39423,-3.32948 v -5.24823 c 0,0 8.44052,-3.47661 8.44052,-14.11624 0,-7.6392 -3.25691,-14.51987 -8.44052,-19.36446"
       id="path8"
       inkscape:connector-curvature="0"
       inkscape:export-filename="C:\Users\suitedoalex\sites\river-plate-logo-4.png"
       inkscape:export-xdpi="99.796585"
       inkscape:export-ydpi="99.796585" />
    <path
       style="fill:#211e1e;fill-opacity:1;fill-rule:nonzero;stroke:none;stroke-width:0.25450778"
       d="m 84.512605,176.05544 c 1.398797,-0.56667 2.87017,-0.98124 4.394237,-1.2447 v -4.97483 c -1.508161,0.21076 -2.97655,0.54778 -4.394237,1.00213 -10.688334,3.42988 -18.448834,13.46107 -18.448834,25.2748 0,11.81275 7.7605,21.84394 18.448834,25.27482 1.417687,0.45433 2.886076,0.79036 4.394237,1.00212 v -4.97483 c -1.524067,-0.26346 -2.99544,-0.67803 -4.394237,-1.2447 -7.933484,-3.21217 -13.550554,-10.98559 -13.550554,-20.05741 0,-9.07181 5.61707,-16.84523 13.550554,-20.0574"
       id="path10"
       inkscape:connector-curvature="0"
       inkscape:export-filename="C:\Users\suitedoalex\sites\river-plate-logo-4.png"
       inkscape:export-xdpi="99.796585"
       inkscape:export-ydpi="99.796585" />
    <path
       style="fill:#211e1e;fill-opacity:1;fill-rule:nonzero;stroke:none;stroke-width:0.25450778"
       d="M 84.512605,193.91573 H 78.91045 c 0.59849,-3.72119 2.664378,-6.95423 5.602155,-9.06982 z m 0,-14.84596 c -6.372636,3.03918 -10.797693,9.52516 -10.797693,17.04307 0,6.35574 3.170412,11.96685 8.000093,15.38779 v -6.82797 c -1.433593,-1.81436 -2.429751,-3.98563 -2.816483,-6.36269 h 5.614083 v 14.84496 c 1.383886,0.66013 2.851282,1.17113 4.394237,1.47833 v -37.04083 c -1.542955,0.3072 -3.010351,0.8182 -4.394237,1.47734"
       id="path12"
       inkscape:connector-curvature="0"
       inkscape:export-filename="C:\Users\suitedoalex\sites\river-plate-logo-4.png"
       inkscape:export-xdpi="99.796585"
       inkscape:export-ydpi="99.796585" />
    <path
       style="fill:#211e1e;fill-opacity:1;fill-rule:nonzero;stroke:none;stroke-width:0.25450778"
       d="m 95.919723,174.75208 c 1.141309,0.17696 2.257763,0.4265 3.332461,0.77447 v 26.3674 c -0.901714,1.03593 -2.041032,1.86009 -3.332461,2.387 z m 3.879256,33.18544 c 0.06661,-0.0408 0.13322,-0.0815 0.19983,-0.12328 0.159071,-0.10041 0.316141,-0.20281 0.470241,-0.30919 0.0219,-0.0149 0.0438,-0.0308 0.0666,-0.0467 0.15211,-0.10637 0.30024,-0.21772 0.44837,-0.33006 1.4674,-1.14131 2.66239,-2.71608 2.66339,-5.14782 v -26.48966 c 0,-4.21131 -3.18931,-4.88735 -6.372642,-5.49479 -2.940758,-0.56072 -5.749291,-0.39568 -5.749291,-0.39568 v 53.02511 c 0.357902,0.0149 0.716795,0.0268 1.078675,0.0268 1.123414,0 2.227939,-0.0775 3.315561,-0.21375 v -12.87949 l 5.097117,11.71929 c 1.42564,-0.47819 2.80058,-1.06973 4.10791,-1.77161 z m 0,0"
       id="path14"
       inkscape:connector-curvature="0"
       inkscape:export-filename="C:\Users\suitedoalex\sites\river-plate-logo-4.png"
       inkscape:export-xdpi="99.796585"
       inkscape:export-ydpi="99.796585" />
    <path
       style="fill:#211e1e;fill-opacity:1;fill-rule:nonzero;stroke:none;stroke-width:0.25450778"
       d="m 92.730422,264.67486 1.246691,-0.50504 c 2.806544,-1.13733 10.131597,-4.6219 17.518287,-12.38339 12.15673,-12.77709 19.16762,-31.51125 20.27215,-54.17835 0.90867,-18.6417 5.69759,-30.20093 7.71477,-34.30586 l 1.0568,-2.15139 -17.15542,-16.84524 -2.09472,0.99318 c -3.41895,1.62248 -11.67853,4.3485 -28.558558,4.37335 -16.88202,-0.0249 -25.140598,-2.75087 -28.560547,-4.37236 l -2.093725,-0.99417 -17.155416,16.84524 1.057798,2.15139 c 2.016181,4.10493 6.805102,15.66416 7.713773,34.30586 1.105518,22.6671 8.115419,41.40126 20.273138,54.17835 7.38669,7.76248 14.711743,11.24606 17.518291,12.38339 z m -2.329342,1.91577 C 87.442428,265.39166 79.725672,261.72615 71.99599,253.60277 59.411772,240.37931 52.160288,221.08046 51.024946,197.79498 50.140132,179.6275 45.515249,168.45003 43.568662,164.48727 l -1.868047,-3.80072 19.734296,-19.37838 3.699311,1.7557 c 2.599757,1.23277 10.479557,4.10195 27.473916,4.12581 16.989392,-0.0239 24.866212,-2.89403 27.463972,-4.12581 l 3.70031,-1.7557 19.7353,19.37838 -1.86805,3.80072 c -1.94659,3.96376 -6.57147,15.14222 -7.45728,33.30771 -1.13435,23.28548 -8.38583,42.58333 -20.97005,55.80779 -7.73068,8.12437 -15.447435,11.78889 -18.406088,12.98786 l -2.20209,0.89276 z m 0,0"
       id="path16"
       inkscape:connector-curvature="0"
       inkscape:export-filename="C:\Users\suitedoalex\sites\river-plate-logo-4.png"
       inkscape:export-xdpi="99.796585"
       inkscape:export-ydpi="99.796585" />
  </g>
</svg>
